<svg width="107" height="80" viewBox="0 0 107 80" fill="none" xmlns="http://www.w3.org/2000/svg">
<g clip-path="url(#clip0_1_526)">
<path d="M72.3094 34.6318H11.0154V11.0957H72.3094V34.6318ZM12.3413 33.295H70.9834V12.431H12.3413V33.295Z" fill="#222226"/>
<path d="M89.3603 57.6402H5.50513V5.54688H89.3603V57.6402ZM6.83109 56.3035H88.0392V6.88213H6.83109V56.3035Z" fill="#222226"/>
<path d="M106.667 79.9989H0V-0.00390625H106.667V79.9989ZM1.32106 78.6622H105.341V1.33284H1.32106V78.6622Z" fill="#222226"/>
<path fill-rule="evenodd" clip-rule="evenodd" d="M24.496 23.153C24.496 20.787 23.0551 19.6676 20.9685 19.6676H19.6508V26.6384H20.9685C23.0556 26.6384 24.496 25.518 24.496 23.153ZM18.1677 18.3125H20.94C23.8655 18.3125 26.0071 19.9864 26.0071 23.153C26.0071 26.3196 23.8655 27.993 20.94 27.993H18.1677V18.3125Z" fill="#222226"/>
<path fill-rule="evenodd" clip-rule="evenodd" d="M35.9385 24.5506C35.9385 26.8875 34.3596 28.1885 32.1895 28.1885C30.0193 28.1885 28.4429 26.8879 28.4429 24.5506V18.3125H29.925V24.5071C29.9014 24.8147 29.9435 25.1238 30.0485 25.4137C30.1534 25.7035 30.3187 25.9674 30.5333 26.1874C30.7478 26.4074 31.0067 26.5785 31.2924 26.6892C31.5781 26.7999 31.884 26.8476 32.1895 26.829C32.4952 26.8479 32.8014 26.8005 33.0875 26.69C33.3735 26.5795 33.6327 26.4084 33.8476 26.1884C34.0625 25.9684 34.2282 25.7044 34.3333 25.4144C34.4385 25.1244 34.4808 24.815 34.4574 24.5071V18.3145H35.9385V24.5506Z" fill="#222226"/>
<path fill-rule="evenodd" clip-rule="evenodd" d="M37.9358 18.3125H45.3484V19.6695H42.3817V27.993H40.9006V19.6695H37.9348L37.9358 18.3125Z" fill="#222226"/>
<path fill-rule="evenodd" clip-rule="evenodd" d="M55.6268 25.6422C54.6259 27.2879 53.4988 28.1874 51.4269 28.1874C48.6939 28.1874 46.6632 26.1115 46.6632 23.1534C46.6383 22.4993 46.745 21.8469 46.977 21.2356C47.2089 20.6242 47.5614 20.0666 48.0129 19.5963C48.4645 19.126 49.0059 18.7528 49.6045 18.4992C50.2031 18.2456 50.8464 18.1169 51.4956 18.1208C52.348 18.086 53.1917 18.3048 53.9217 18.7499C54.6516 19.195 55.2355 19.8467 55.6007 20.624L54.4221 21.481C53.7346 20.1402 52.7867 19.4758 51.4701 19.4758C49.6579 19.4758 48.1743 21.0245 48.1743 23.1553C48.1743 25.257 49.5597 26.8329 51.4563 26.8329C52.746 26.8329 53.7611 26.2105 54.4894 24.8283L55.6268 25.6422Z" fill="#222226"/>
<path fill-rule="evenodd" clip-rule="evenodd" d="M58.092 18.3125H59.5732V22.3777H64.0481V18.3125H65.5327V27.993H64.0481V23.7327H59.5732V27.993H58.092V18.3125Z" fill="#222226"/>
<path fill-rule="evenodd" clip-rule="evenodd" d="M19.1135 45.6017C19.1135 43.2362 17.6731 42.1163 15.5864 42.1163H14.2683V49.0871H15.5864C17.6736 49.0871 19.1135 47.9678 19.1135 45.6017ZM12.7856 40.7617H15.5579C18.4829 40.7617 20.6246 42.4356 20.6246 45.6017C20.6246 48.7678 18.4829 50.4417 15.5579 50.4417H12.7856V40.7617Z" fill="#222226"/>
<path fill-rule="evenodd" clip-rule="evenodd" d="M25.4634 50.4422H26.9445V40.7617H25.4634V50.4422Z" fill="#222226"/>
<path fill-rule="evenodd" clip-rule="evenodd" d="M39.4303 48.9479C39.1383 49.4835 38.703 49.9256 38.1738 50.2238C37.6447 50.5221 37.0431 50.6644 36.4376 50.6347C33.7326 50.6347 31.7549 48.5192 31.7549 45.6006C31.7362 44.947 31.8477 44.2962 32.0827 43.6867C32.3178 43.0772 32.6716 42.5214 33.1234 42.0522C33.5751 41.5829 34.1156 41.2097 34.7128 40.9546C35.3101 40.6996 35.952 40.5678 36.6006 40.567C37.4337 40.5386 38.258 40.7451 38.9811 41.1632C39.7041 41.5812 40.2971 42.1943 40.6934 42.9336L39.5664 43.7212C39.293 43.1602 38.8658 42.69 38.3353 42.3663C37.8048 42.0427 37.1934 41.8793 36.5736 41.8954C34.7752 41.8954 33.2661 43.348 33.2661 45.6016C33.2661 47.8008 34.5699 49.2801 36.4636 49.2801C38.207 49.2801 39.0861 48.1597 39.2928 46.6537H36.0516V45.4214H40.7735V50.4411H39.7864L39.4303 48.9479Z" fill="#222226"/>
<path fill-rule="evenodd" clip-rule="evenodd" d="M45.9177 50.4422H47.3989V40.7617H45.9177V50.4422Z" fill="#222226"/>
<path fill-rule="evenodd" clip-rule="evenodd" d="M51.6926 40.7617H59.1038V42.1163H56.1381V50.4422H54.6569V42.1163H51.6912L51.6926 40.7617Z" fill="#222226"/>
<path fill-rule="evenodd" clip-rule="evenodd" d="M65.677 43.3887L64.5092 46.4458H67.5019L66.3371 43.3887C66.1436 42.8906 66.0075 42.4624 66.0075 42.4624C66.0075 42.4624 65.8705 42.8906 65.677 43.3887ZM65.265 40.7617H66.7496L70.5914 50.4422H69.0273L67.996 47.746H64.0151L62.9838 50.4422H61.4187L65.265 40.7617Z" fill="#222226"/>
<path fill-rule="evenodd" clip-rule="evenodd" d="M74.8337 40.7617H76.3159V49.1144H81.1345V50.4422H74.8337V40.7617Z" fill="#222226"/>
<path fill-rule="evenodd" clip-rule="evenodd" d="M12.0589 66.3535L10.891 69.4107H13.8838L12.7159 66.3535C12.5244 65.8554 12.3864 65.4272 12.3864 65.4272C12.3864 65.4272 12.2499 65.8554 12.0589 66.3535ZM11.6458 63.7266H13.1285L16.9728 73.4071H15.4067L14.3754 70.7108H10.3965L9.36518 73.4071H7.80054L11.6458 63.7266Z" fill="#222226"/>
<path fill-rule="evenodd" clip-rule="evenodd" d="M28.3168 71.9128C28.025 72.4485 27.5897 72.8908 27.0605 73.189C26.5313 73.4873 25.9296 73.6295 25.3241 73.5996C22.6196 73.5996 20.6419 71.484 20.6419 68.566C20.6232 67.9123 20.7345 67.2615 20.9695 66.652C21.2045 66.0425 21.5583 65.4867 22.01 65.0174C22.4617 64.5481 23.0021 64.1748 23.5993 63.9197C24.1966 63.6645 24.8385 63.5327 25.4871 63.5319C26.3201 63.5034 27.1444 63.7096 27.8674 64.1275C28.5905 64.5454 29.1835 65.1584 29.5799 65.8974L28.4533 66.6851C28.18 66.1241 27.7527 65.6539 27.2223 65.3302C26.6918 65.0066 26.0804 64.8431 25.4606 64.8592C23.6622 64.8592 22.153 66.3118 22.153 68.566C22.153 70.7647 23.4569 72.2435 25.3511 72.2435C27.0945 72.2435 27.9735 71.1231 28.1803 69.6195H24.939V68.3863H29.661V73.4065H28.6743L28.3168 71.9128Z" fill="#222226"/>
<path fill-rule="evenodd" clip-rule="evenodd" d="M35.1184 63.7266H41.4325V65.0544H36.5996V67.7368H41.0484V69.0646H36.6005V72.0792H41.4742V73.4071H35.1194L35.1184 63.7266Z" fill="#222226"/>
<path fill-rule="evenodd" clip-rule="evenodd" d="M46.677 63.7246H48.1862L52.4985 70.4707C52.6495 70.7072 52.7874 70.952 52.9115 71.2039V63.7246H54.3357V73.4056H52.8265L48.5157 66.6585C48.365 66.4225 48.2277 66.178 48.1046 65.9263V73.4056H46.677V63.7246Z" fill="#222226"/>
<path fill-rule="evenodd" clip-rule="evenodd" d="M68.44 71.0558C67.4392 72.7014 66.3121 73.6005 64.2402 73.6005C61.5072 73.6005 59.4765 71.5251 59.4765 68.567C59.4514 67.9128 59.5579 67.2604 59.7897 66.6489C60.0216 66.0375 60.3738 65.4797 60.8253 65.0093C61.2768 64.5388 61.8182 64.1655 62.4168 63.9117C63.0153 63.658 63.6586 63.5291 64.3079 63.5329C65.1601 63.4981 66.0036 63.7169 66.7334 64.1619C67.4632 64.6069 68.047 65.2585 68.4121 66.0356L67.2364 66.8935C66.5488 65.5528 65.601 64.8884 64.2844 64.8884C62.4722 64.8884 60.9886 66.4371 60.9886 68.5679C60.9886 70.6696 62.374 72.2455 64.2701 72.2455C65.5602 72.2455 66.5753 71.6231 67.3036 70.2404L68.44 71.0558Z" fill="#222226"/>
<path fill-rule="evenodd" clip-rule="evenodd" d="M73.4683 73.4066H74.9494V63.7266H73.4683V73.4066Z" fill="#222226"/>
<path fill-rule="evenodd" clip-rule="evenodd" d="M80.5452 63.7266H86.8592V65.0544H82.0263V67.7368H86.4747V69.0646H82.0263V72.0792H86.9V73.4071H80.5452V63.7266Z" fill="#222226"/>
<path fill-rule="evenodd" clip-rule="evenodd" d="M95.7225 67.7913C97.7929 68.1923 98.8243 69.0636 98.8243 70.6811C98.8243 72.2441 97.4796 73.6021 95.31 73.6021C93.019 73.6021 91.6871 72.2743 91.3713 70.5459L92.6752 69.8686C92.9478 71.4584 93.8406 72.3025 95.2972 72.3025C96.574 72.3025 97.3416 71.597 97.3416 70.74C97.3416 69.7295 96.547 69.2864 94.8989 68.9696C93.1147 68.623 91.8109 67.7521 91.8109 66.1203C91.8109 64.5855 93.1693 63.534 95.1042 63.534C95.8767 63.4863 96.6433 63.6962 97.2859 64.1312C97.9284 64.5662 98.4112 65.2022 98.6597 65.9411L97.4811 66.6342C97.3476 66.1037 97.0373 65.6356 96.6023 65.3082C96.1673 64.9807 95.6339 64.8139 95.0914 64.8356C94.0763 64.8356 93.2115 65.2658 93.2115 66.0951C93.2115 66.9664 94.0356 67.464 95.7239 67.7952" fill="#222226"/>
<path fill-rule="evenodd" clip-rule="evenodd" d="M24.496 23.153C24.496 20.787 23.0551 19.6676 20.9685 19.6676H19.6508V26.6384H20.9685C23.0556 26.6384 24.496 25.518 24.496 23.153ZM18.1677 18.3125H20.94C23.8655 18.3125 26.0071 19.9864 26.0071 23.153C26.0071 26.3196 23.8655 27.993 20.94 27.993H18.1677V18.3125Z" fill="#222226"/>
<path fill-rule="evenodd" clip-rule="evenodd" d="M35.9385 24.5487C35.9385 26.8855 34.3596 28.1866 32.1895 28.1866C30.0193 28.1866 28.4429 26.886 28.4429 24.5487V18.3105H29.925V24.5051C29.9014 24.8127 29.9435 25.1219 30.0485 25.4117C30.1534 25.7016 30.3187 25.9654 30.5333 26.1854C30.7478 26.4054 31.0067 26.5766 31.2924 26.6872C31.5781 26.7979 31.884 26.8456 32.1895 26.8271C32.4952 26.846 32.8014 26.7985 33.0875 26.688C33.3735 26.5775 33.6327 26.4065 33.8476 26.1864C34.0625 25.9664 34.2282 25.7025 34.3333 25.4124C34.4385 25.1224 34.4808 24.813 34.4574 24.5051V18.3125H35.9385V24.5487Z" fill="#222226"/>
<path fill-rule="evenodd" clip-rule="evenodd" d="M37.936 18.3125H45.3487V19.6695H42.382V27.993H40.9008V19.6695H37.9351L37.936 18.3125Z" fill="#222226"/>
<path fill-rule="evenodd" clip-rule="evenodd" d="M55.6268 25.6422C54.6259 27.2879 53.4988 28.1874 51.4269 28.1874C48.6939 28.1874 46.6632 26.1115 46.6632 23.1534C46.6383 22.4993 46.745 21.8469 46.977 21.2356C47.2089 20.6242 47.5614 20.0666 48.0129 19.5963C48.4645 19.126 49.0059 18.7528 49.6045 18.4992C50.2031 18.2456 50.8464 18.1169 51.4956 18.1208C52.348 18.086 53.1917 18.3048 53.9217 18.7499C54.6516 19.195 55.2355 19.8467 55.6007 20.624L54.4221 21.481C53.7346 20.1402 52.7867 19.4758 51.4701 19.4758C49.6579 19.4758 48.1743 21.0245 48.1743 23.1553C48.1743 25.257 49.5597 26.8329 51.4563 26.8329C52.746 26.8329 53.7611 26.2105 54.4894 24.8283L55.6268 25.6422Z" fill="#222226"/>
<path fill-rule="evenodd" clip-rule="evenodd" d="M58.092 18.3125H59.5732V22.3777H64.0481V18.3125H65.5327V27.993H64.0481V23.7327H59.5732V27.993H58.092V18.3125Z" fill="#222226"/>
<path fill-rule="evenodd" clip-rule="evenodd" d="M19.1135 45.6017C19.1135 43.2362 17.6731 42.1163 15.5864 42.1163H14.2683V49.0871H15.5864C17.6736 49.0871 19.1135 47.9678 19.1135 45.6017ZM12.7856 40.7617H15.5579C18.4829 40.7617 20.6246 42.4356 20.6246 45.6017C20.6246 48.7678 18.4829 50.4417 15.5579 50.4417H12.7856V40.7617Z" fill="#222226"/>
<path fill-rule="evenodd" clip-rule="evenodd" d="M25.4634 50.4422H26.9445V40.7617H25.4634V50.4422Z" fill="#222226"/>
<path fill-rule="evenodd" clip-rule="evenodd" d="M39.4303 48.9479C39.1383 49.4835 38.703 49.9256 38.1738 50.2238C37.6447 50.5221 37.0431 50.6644 36.4376 50.6347C33.7326 50.6347 31.7549 48.5192 31.7549 45.6006C31.7362 44.947 31.8477 44.2962 32.0827 43.6867C32.3178 43.0772 32.6716 42.5214 33.1234 42.0522C33.5751 41.5829 34.1156 41.2097 34.7128 40.9546C35.3101 40.6996 35.952 40.5678 36.6006 40.567C37.4337 40.5386 38.258 40.7451 38.9811 41.1632C39.7041 41.5812 40.2971 42.1943 40.6934 42.9336L39.5664 43.7212C39.293 43.1602 38.8658 42.69 38.3353 42.3663C37.8048 42.0427 37.1934 41.8793 36.5736 41.8954C34.7752 41.8954 33.2661 43.348 33.2661 45.6016C33.2661 47.8008 34.5699 49.2801 36.4636 49.2801C38.207 49.2801 39.0861 48.1597 39.2928 46.6537H36.0516V45.4214H40.7735V50.4411H39.7864L39.4303 48.9479Z" fill="#222226"/>
<path fill-rule="evenodd" clip-rule="evenodd" d="M45.9177 50.4422H47.3989V40.7617H45.9177V50.4422Z" fill="#222226"/>
<path fill-rule="evenodd" clip-rule="evenodd" d="M51.6926 40.7617H59.1038V42.1163H56.1381V50.4422H54.6569V42.1163H51.6912L51.6926 40.7617Z" fill="#222226"/>
<path fill-rule="evenodd" clip-rule="evenodd" d="M65.677 43.3887L64.5092 46.4458H67.5019L66.3371 43.3887C66.1436 42.8906 66.0075 42.4624 66.0075 42.4624C66.0075 42.4624 65.8705 42.8906 65.677 43.3887ZM65.265 40.7617H66.7496L70.5914 50.4422H69.0273L67.996 47.746H64.0151L62.9838 50.4422H61.4187L65.265 40.7617Z" fill="#222226"/>
<path fill-rule="evenodd" clip-rule="evenodd" d="M74.8337 40.7617H76.3159V49.1144H81.1345V50.4422H74.8337V40.7617Z" fill="#222226"/>
<path fill-rule="evenodd" clip-rule="evenodd" d="M12.0589 66.3535L10.891 69.4107H13.8838L12.7159 66.3535C12.5244 65.8554 12.3864 65.4272 12.3864 65.4272C12.3864 65.4272 12.2499 65.8554 12.0589 66.3535ZM11.6458 63.7266H13.1285L16.9728 73.4071H15.4067L14.3754 70.7108H10.3965L9.36518 73.4071H7.80054L11.6458 63.7266Z" fill="#222226"/>
<path fill-rule="evenodd" clip-rule="evenodd" d="M28.3168 71.9128C28.025 72.4485 27.5897 72.8908 27.0605 73.189C26.5313 73.4873 25.9296 73.6295 25.3241 73.5996C22.6196 73.5996 20.6419 71.484 20.6419 68.566C20.6232 67.9123 20.7345 67.2615 20.9695 66.652C21.2045 66.0425 21.5583 65.4867 22.01 65.0174C22.4617 64.5481 23.0021 64.1748 23.5993 63.9197C24.1966 63.6645 24.8385 63.5327 25.4871 63.5319C26.3201 63.5034 27.1444 63.7096 27.8674 64.1275C28.5905 64.5454 29.1835 65.1584 29.5799 65.8974L28.4533 66.6851C28.18 66.1241 27.7527 65.6539 27.2223 65.3302C26.6918 65.0066 26.0804 64.8431 25.4606 64.8592C23.6622 64.8592 22.153 66.3118 22.153 68.566C22.153 70.7647 23.4569 72.2435 25.3511 72.2435C27.0945 72.2435 27.9735 71.1231 28.1803 69.6195H24.939V68.3863H29.661V73.4065H28.6743L28.3168 71.9128Z" fill="#222226"/>
<path fill-rule="evenodd" clip-rule="evenodd" d="M35.1184 63.7266H41.4325V65.0544H36.5996V67.7368H41.0484V69.0646H36.6005V72.0792H41.4742V73.4071H35.1194L35.1184 63.7266Z" fill="#222226"/>
<path fill-rule="evenodd" clip-rule="evenodd" d="M46.677 63.7246H48.1862L52.4985 70.4707C52.6495 70.7072 52.7874 70.952 52.9115 71.2039V63.7246H54.3357V73.4056H52.8265L48.5157 66.6585C48.365 66.4225 48.2277 66.178 48.1046 65.9263V73.4056H46.677V63.7246Z" fill="#222226"/>
<path fill-rule="evenodd" clip-rule="evenodd" d="M68.44 71.0558C67.4392 72.7014 66.3121 73.6005 64.2402 73.6005C61.5072 73.6005 59.4765 71.5251 59.4765 68.567C59.4514 67.9128 59.5579 67.2604 59.7897 66.6489C60.0216 66.0375 60.3738 65.4797 60.8253 65.0093C61.2768 64.5388 61.8182 64.1655 62.4168 63.9117C63.0153 63.658 63.6586 63.5291 64.3079 63.5329C65.1601 63.4981 66.0036 63.7169 66.7334 64.1619C67.4632 64.6069 68.047 65.2585 68.4121 66.0356L67.2364 66.8935C66.5488 65.5528 65.601 64.8884 64.2844 64.8884C62.4722 64.8884 60.9886 66.4371 60.9886 68.5679C60.9886 70.6696 62.374 72.2455 64.2701 72.2455C65.5602 72.2455 66.5753 71.6231 67.3036 70.2404L68.44 71.0558Z" fill="#222226"/>
<path fill-rule="evenodd" clip-rule="evenodd" d="M73.4683 73.4066H74.9494V63.7266H73.4683V73.4066Z" fill="#222226"/>
<path fill-rule="evenodd" clip-rule="evenodd" d="M80.5452 63.7266H86.8592V65.0544H82.0263V67.7368H86.4747V69.0646H82.0263V72.0792H86.9V73.4071H80.5452V63.7266Z" fill="#222226"/>
</g>
<defs>
<clipPath id="clip0_1_526">
<rect width="106.667" height="80" fill="white"/>
</clipPath>
</defs>
</svg>
