<svg width="54" height="72" viewBox="0 0 54 72" fill="none" xmlns="http://www.w3.org/2000/svg">
<path d="M52.5283 9.17811C53.3388 8.98749 53.9428 8.26143 53.9428 7.39279V1.83581C53.9428 0.822135 53.1207 0 52.107 0H1.89342C0.879752 0 0.0576172 0.822135 0.0576172 1.83581V7.3931C0.0576172 8.26174 0.661598 8.9878 1.47211 9.17842C2.02652 19.0655 7.16127 28.1264 15.4493 33.6791L18.9141 36.0002L15.4493 38.3212C7.16096 43.8736 2.02621 52.9349 1.47211 62.8219C0.661598 63.0125 0.0576172 63.7386 0.0576172 64.6072V70.1645C0.0576172 71.1782 0.879752 72.0003 1.89342 72.0003H52.107C53.1207 72.0003 53.9428 71.1782 53.9428 70.1645V64.6072C53.9428 63.7386 53.3388 63.0125 52.5283 62.8219C51.9739 52.9349 46.8392 43.8739 38.5508 38.3212L35.086 36.0002L38.5508 33.6791C46.8392 28.1264 51.9739 19.0651 52.5283 9.17811ZM3.72923 3.67161H50.2712V5.55729H3.72923V3.67161ZM50.2712 68.3284H3.72923V66.4427H50.2712V68.3284ZM30.7661 34.4749C30.2572 34.8158 29.9519 35.3876 29.9519 36.0002C29.9519 36.6127 30.2572 37.1846 30.7661 37.5254L36.5075 41.3717C43.762 46.2314 48.2842 54.1321 48.8481 62.7714H5.15229C5.71618 54.1324 10.2384 46.2317 17.4929 41.3717L23.2344 37.5254C23.7432 37.1846 24.0485 36.6127 24.0485 36.0002C24.0485 35.3876 23.7432 34.8158 23.2344 34.4749L17.4929 30.6286C10.2384 25.7686 5.71618 17.8679 5.15229 9.2289H48.8481C48.2842 17.8682 43.762 25.7686 36.5075 30.6286L30.7661 34.4749Z" fill="#364BF7"/>
</svg>
