<svg width="65" height="72" viewBox="0 0 65 72" fill="none" xmlns="http://www.w3.org/2000/svg">
<g id="Group 14">
<g id="Group 13">
<g id="Fill-5">
<path id="Path 26" fill-rule="evenodd" clip-rule="evenodd" d="M53.4345 36.0018C53.4345 18.4041 42.4065 10.0785 26.4358 10.0785H16.3513V61.9252H26.4358C42.4103 61.9252 53.4345 53.5922 53.4345 36.0018ZM5 0H26.2178C48.6083 0 65 12.4498 65 36.0018C65 59.5538 48.6083 72 26.2178 72H5V0Z" fill="#364BF7"/>
</g>
</g>
<path id="Vector 1" d="M59 1H5.5C16.7 10.2 19.1667 23.1667 19 28.5C18.8214 32.5 18.5713 40.9 19 42.5C19.5359 44.5 17 55 16.5 59C16.1 62.2 6 67.6667 1 70H62C59.8333 68.3333 54.6 63.8 51 59C47.4 54.2 44.2486 46 43.1229 42.5V28.5C43.1229 24.1 53.7076 8.33333 59 1Z" fill="#364BF7" stroke="#364BF7"/>
</g>
</svg>
