<svg width="60" height="72" viewBox="0 0 60 72" fill="none" xmlns="http://www.w3.org/2000/svg">

<path id="start" d="M55.5283 9.17811C56.3388 8.98749 56.9428 8.26143 56.9428 7.39279V1.83581C56.9428 0.822135 56.1207 0 55.107 0H4.89342C3.87975 0 3.05762 0.822135 3.05762 1.83581V7.3931C3.05762 8.26174 3.6616 8.9878 4.47211 9.17842C5.02652 19.0655 10.1613 28.1264 18.4493 33.6791L21.9141 36.0002L18.4493 38.3212C10.161 43.8736 5.02621 52.9349 4.47211 62.8219C3.6616 63.0125 3.05762 63.7386 3.05762 64.6072V70.1645C3.05762 71.1782 3.87975 72.0003 4.89342 72.0003H55.107C56.1207 72.0003 56.9428 71.1782 56.9428 70.1645V64.6072C56.9428 63.7386 56.3388 63.0125 55.5283 62.8219C54.9739 52.9349 49.8392 43.8739 41.5508 38.3212L38.086 36.0002L41.5508 33.6791C49.8392 28.1264 54.9739 19.0651 55.5283 9.17811ZM6.72923 3.67161H53.2712V5.55729H6.72923V3.67161ZM53.2712 68.3284H6.72923V66.4427H53.2712V68.3284ZM33.7661 34.4749C33.2572 34.8158 32.9519 35.3876 32.9519 36.0002C32.9519 36.6127 33.2572 37.1846 33.7661 37.5254L39.5075 41.3717C46.762 46.2314 51.2842 54.1321 51.8481 62.7714H8.15229C8.71618 54.1324 13.2384 46.2317 20.4929 41.3717L26.2344 37.5254C26.7432 37.1846 27.0485 36.6127 27.0485 36.0002C27.0485 35.3876 26.7432 34.8158 26.2344 34.4749L20.4929 30.6286C13.2384 25.7686 8.71618 17.8679 8.15229 9.2289H51.8481C51.2842 17.8682 46.762 25.7686 39.5075 30.6286L33.7661 34.4749Z" fill="#364BF7"/>

<path id="end" fill-rule="evenodd" clip-rule="evenodd" d="M48.4345 36.0018C48.4345 18.4041 37.4065 10.0785 21.4358 10.0785H11.3513V61.9252H21.4358C37.4103 61.9252 48.4345 53.5922 48.4345 36.0018ZM0 0H21.2178C43.6083 0 60 12.4498 60 36.0018C60 59.5538 43.6083 72 21.2178 72H0V0Z" fill="#364BF7"/>
 
</svg>
